<svg width="831" height="484" viewBox="0 0 831 484" fill="none" xmlns="http://www.w3.org/2000/svg">
<path d="M9.48242 140.39V2H29.0224V120.84H54.2624V140.39H9.48242Z" fill="#4B8683"/>
<path d="M65.3413 113.191V29.1912C65.3229 25.5841 66.0409 22.0112 67.4513 18.6912C68.8168 15.4492 70.7772 12.4916 73.2313 9.97116C75.6748 7.4824 78.5786 5.49216 81.7813 4.11114C85.1281 2.68541 88.7336 1.96706 92.3713 2.00116H115.491V21.5412H92.3713C91.3706 21.5114 90.3747 21.6917 89.448 22.0707C88.5213 22.4496 87.6844 23.0187 86.9913 23.7411C86.2952 24.4659 85.7502 25.3219 85.388 26.2593C85.0258 27.1966 84.8535 28.1966 84.8813 29.2012V62.2512H115.491V81.7912H84.8813V113.221C84.8535 114.226 85.0258 115.226 85.388 116.163C85.7502 117.1 86.2952 117.956 86.9913 118.681C87.6849 119.402 88.5221 119.97 89.4489 120.347C90.3756 120.724 91.3712 120.903 92.3713 120.871H115.491V140.421H92.3713C88.7329 140.452 85.1274 139.73 81.7813 138.301C78.5766 136.924 75.6721 134.933 73.2313 132.441C70.7919 129.943 68.8327 127.018 67.4513 123.811C66.0215 120.455 65.303 116.839 65.3413 113.191Z" fill="#4B8683"/>
<path d="M0.00259205 420.002V229.712C-0.0356513 221.511 1.60111 213.388 4.81259 205.842C7.91376 198.465 12.3708 191.735 17.9526 186.002C23.4978 180.336 30.0986 175.811 37.3826 172.682C44.9835 169.43 53.1757 167.789 61.4426 167.862H114.003V212.282H61.4426C59.1703 212.21 56.9083 212.618 54.8044 213.48C52.7005 214.341 50.8019 215.637 49.2326 217.282C47.6468 218.923 46.4045 220.864 45.5785 222.992C44.7526 225.119 44.3596 227.39 44.4226 229.672V420.002C44.359 422.283 44.7518 424.554 45.5778 426.682C46.4037 428.81 47.6463 430.751 49.2326 432.392C50.8019 434.037 52.7005 435.332 54.8044 436.194C56.9083 437.055 59.1703 437.463 61.4426 437.392H114.003V481.812H61.4426C53.344 481.883 45.315 480.312 37.8403 477.195C30.3655 474.077 23.6001 469.477 17.9526 463.672C12.4 457.998 7.94508 451.346 4.81259 444.052C1.56346 436.454 -0.0743741 428.265 0.00259205 420.002Z" fill="#4B8683"/>
<path d="M264.642 481.851L254.642 420.411H193.942L183.942 481.851H139.902L190.242 2.37109H258.342L308.682 481.851H264.642ZM200.972 376.001H247.592L224.292 59.3711L200.972 376.001Z" fill="#4B8683"/>
<path d="M334.852 483.109V0.859375H411.152C422.892 0.859375 433.392 3.07607 442.652 7.5094C451.712 11.789 459.677 18.0784 465.942 25.8994C471.754 33.1038 476.017 41.431 478.462 50.3594C480.757 58.714 481.941 67.3351 481.982 75.9994V407.999C481.941 416.66 480.758 425.278 478.462 433.629C476.021 442.559 471.758 450.887 465.942 458.089C459.683 465.916 451.716 472.206 442.652 476.479C433.392 480.919 422.892 483.136 411.152 483.129L334.852 483.109ZM411.152 436.109C416.372 436.109 420.285 435.389 422.892 433.949C425.19 432.78 427.196 431.109 428.762 429.059C430.833 426.526 432.364 423.596 433.262 420.449C434.49 416.416 435.084 412.216 435.022 407.999V75.9994C435.09 71.7599 434.496 67.5358 433.262 63.4794C432.371 60.4041 430.983 57.4955 429.152 54.8694C427.372 52.8858 425.252 51.2365 422.892 49.9994C420.285 48.5727 416.372 47.8561 411.152 47.8494H381.812V436.159L411.152 436.109Z" fill="#4B8683"/>
<path d="M522.592 483V1H599.059C611.085 1 621.545 3.32928 630.438 7.98784C638.953 12.3411 646.521 18.816 652.596 26.945C658.555 35.0789 663.02 44.5163 665.725 54.6888C668.619 65.3518 670.076 76.4623 670.044 87.6332V266.411C670.082 269.846 669.51 273.254 668.365 276.426C667.219 279.599 665.522 282.469 663.38 284.861L642.203 308.327L682.592 482.942H635.489L603.379 351.246L569.605 388.699V483H522.592ZM622.981 256.033V87.6101C622.981 78.2853 621.281 70.5364 617.88 64.3634C614.479 58.1904 608.206 55.1155 599.059 55.1385H569.605V314.242L622.981 256.033Z" fill="#4B8683"/>
<path d="M710.594 406.802V76.1864C710.558 66.2082 712.281 56.3261 715.66 47.1441C718.924 38.1867 723.613 30.0175 729.484 23.061C735.318 16.1615 742.267 10.6532 749.937 6.84842C757.933 2.89995 766.551 0.909706 775.246 1.00314H830.552V55.026H775.246C772.861 54.9474 770.489 55.4486 768.282 56.4971C766.076 57.5457 764.084 59.1182 762.437 61.113C760.769 63.1103 759.461 65.4721 758.592 68.0602C757.722 70.6483 757.307 73.4108 757.371 76.1864V265.871H830.592V319.951H757.331V406.802C757.271 409.583 757.691 412.35 758.568 414.94C759.444 417.531 760.76 419.892 762.437 421.887C764.091 423.885 766.089 425.46 768.302 426.508C770.516 427.557 772.895 428.056 775.286 427.974H830.592V481.997H775.246C766.551 482.09 757.933 480.1 749.937 476.152C742.269 472.354 735.32 466.853 729.484 459.962C723.643 453.052 718.956 444.954 715.66 436.074C712.242 426.826 710.517 416.859 710.594 406.802Z" fill="#4B8683"/>
</svg>
